<svg xmlns="http://www.w3.org/2000/svg" width="28" height="28" viewBox="0 0 28 28"><defs><style>.a,.d{fill:none;}.a{stroke:#8e2175;stroke-width:1.6px;}.b{fill:#8f2175;stroke:#8f2175;stroke-width:0.1px;}.c{stroke:none;}</style></defs><g class="a"><circle class="c" cx="14" cy="14" r="14"/><circle class="d" cx="14" cy="14" r="13.2"/></g><g transform="translate(8 18.135) rotate(-90)"><path class="b" d="M0,6.38a.79.79,0,0,0,.188.441l5.631,5.708a.8.8,0,0,0,1.064.053.61.61,0,0,0,.062-.935L2,6.38H2L6.945,1.112a.606.606,0,0,0-.1-.943A.762.762,0,0,0,5.819.231L.188,5.939A.621.621,0,0,0,0,6.38Z"/></g></svg>